<?xml version="1.0" standalone="no"?>
<!DOCTYPE svg PUBLIC "-//W3C//DTD SVG 20010904//EN"
 "http://www.w3.org/TR/2001/REC-SVG-20010904/DTD/svg10.dtd">
<svg version="1.0" xmlns="http://www.w3.org/2000/svg"
 width="188.000000pt" height="93.000000pt" viewBox="0 0 188.000000 93.000000"
 preserveAspectRatio="xMidYMid meet">

<g transform="translate(0.000000,93.000000) scale(0.100000,-0.100000)"
fill="#000000" stroke="none">
<path d="M805 863 c-69 -15 -160 -51 -220 -86 -78 -45 -205 -143 -205 -157 0
-16 16 -11 35 10 9 10 47 39 84 64 200 134 410 167 475 74 31 -44 13 -149 -38
-223 -17 -24 -21 -26 -24 -12 -3 14 -15 17 -66 17 -35 0 -91 3 -125 6 -57 6
-61 6 -61 -14 0 -17 7 -21 43 -24 l42 -3 6 -50 c4 -27 4 -72 1 -99 -5 -44 -9
-52 -61 -92 -127 -100 -308 -164 -410 -144 -68 13 -99 35 -112 80 -21 69 14
160 106 279 42 56 54 81 38 81 -26 0 -179 -215 -208 -292 -50 -135 4 -218 143
-218 133 0 282 64 458 197 39 29 44 29 44 -2 0 -18 5 -25 20 -25 29 0 27 45
-2 55 -21 7 -20 8 9 12 l32 4 3 102 3 102 48 3 c26 2 47 -1 47 -6 0 -4 -11
-23 -25 -42 -30 -41 -32 -60 -5 -53 17 5 20 0 20 -26 0 -59 51 -88 140 -81 28
2 70 26 70 39 0 16 -54 20 -71 5 -20 -18 -44 -18 -63 2 -26 26 -9 34 71 34
l75 0 -7 28 c-3 15 -14 35 -22 44 -22 24 -78 41 -113 33 -17 -4 -30 -4 -30 -2
0 3 20 38 45 78 92 149 88 254 -11 295 -31 13 -134 17 -179 7z m233 -425 c21
-21 13 -28 -28 -28 -28 0 -40 4 -40 14 0 25 48 34 68 14z"/>
<path d="M373 540 c-41 -25 -53 -48 -53 -105 0 -75 38 -115 126 -130 85 -14
169 36 180 106 8 48 -17 104 -58 129 -45 27 -150 28 -195 0z m161 -41 c20 -16
26 -29 26 -60 0 -55 -14 -76 -56 -88 -94 -26 -166 78 -99 144 31 32 91 34 129
4z"/>
<path d="M1634 544 c3 -9 6 -21 7 -27 1 -7 5 -1 9 13 l8 25 7 -22 c11 -34 55
-32 55 2 0 23 -4 25 -46 25 -38 0 -45 -3 -40 -16z"/>
<path d="M1410 426 l0 -126 25 0 c14 0 28 0 33 0 4 0 8 15 8 33 1 17 2 47 3
65 1 24 7 35 24 41 41 16 56 -3 59 -77 l3 -67 30 0 30 0 -1 74 c0 66 -3 76
-25 94 -19 15 -34 18 -71 14 l-47 -6 -3 37 c-3 34 -6 37 -35 40 l-33 3 0 -125z"/>
<path d="M1179 451 c-71 -72 0 -175 109 -158 33 6 82 41 82 59 0 13 -54 8 -74
-7 -11 -8 -25 -15 -32 -15 -23 0 -44 31 -44 66 0 27 5 37 25 46 20 9 28 8 43
-5 23 -21 72 -23 72 -3 0 26 -42 46 -98 46 -46 0 -58 -4 -83 -29z"/>
<path d="M880 256 c0 -16 5 -26 15 -26 8 0 15 6 15 14 0 7 -7 19 -15 26 -13
11 -15 8 -15 -14z"/>
<path d="M977 273 c-11 -10 -8 -43 3 -43 6 0 10 11 10 25 0 26 -2 29 -13 18z"/>
<path d="M825 260 c-7 -12 2 -30 16 -30 5 0 9 9 9 20 0 21 -15 27 -25 10z"/>
<path d="M930 256 c0 -8 5 -18 10 -21 6 -3 10 3 10 14 0 12 -4 21 -10 21 -5 0
-10 -6 -10 -14z"/>
<path d="M1014 259 c-3 -6 -1 -16 5 -22 9 -9 14 -8 21 3 9 15 4 30 -10 30 -5
0 -12 -5 -16 -11z"/>
<path d="M1090 250 c0 -11 7 -20 15 -20 17 0 18 2 9 24 -9 23 -24 20 -24 -4z"/>
<path d="M1512 245 c0 -16 2 -22 5 -12 2 9 2 23 0 30 -3 6 -5 -1 -5 -18z"/>
<path d="M1140 245 c0 -8 5 -15 10 -15 6 0 10 7 10 15 0 8 -4 15 -10 15 -5 0
-10 -7 -10 -15z"/>
<path d="M1192 248 c2 -6 10 -14 16 -16 7 -2 10 2 6 12 -7 18 -28 22 -22 4z"/>
<path d="M1250 245 c0 -8 4 -15 9 -15 5 0 11 7 15 15 3 9 0 15 -9 15 -8 0 -15
-7 -15 -15z"/>
<path d="M1300 245 c0 -8 7 -15 15 -15 8 0 15 7 15 15 0 8 -7 15 -15 15 -8 0
-15 -7 -15 -15z"/>
<path d="M1350 246 c0 -17 14 -29 23 -20 8 8 -3 34 -14 34 -5 0 -9 -6 -9 -14z"/>
<path d="M1400 245 c0 -10 7 -15 18 -13 21 4 19 22 -2 26 -10 2 -16 -3 -16
-13z"/>
<path d="M1460 238 c0 -12 3 -18 7 -14 11 10 12 36 2 36 -5 0 -9 -10 -9 -22z"/>
<path d="M1550 246 c0 -22 17 -28 24 -10 9 22 8 24 -9 24 -8 0 -15 -6 -15 -14z"/>
<path d="M1607 240 c3 -11 9 -17 14 -14 14 8 10 34 -5 34 -9 0 -12 -7 -9 -20z"/>
</g>
</svg>
